<svg width="24" height="24" viewBox="0 0 24 24" fill="none" xmlns="http://www.w3.org/2000/svg">
<path d="M2.89986 2.30005L21.7049 8.56805C21.8022 8.60031 21.8873 8.66172 21.9485 8.74395C22.0098 8.82618 22.0443 8.92526 22.0473 9.02775C22.0504 9.13025 22.0218 9.23121 21.9656 9.31694C21.9093 9.40268 21.8281 9.46904 21.7329 9.50705L12.9999 13L8.57486 21.85C8.52983 21.9402 8.45863 22.0146 8.37058 22.0635C8.28254 22.1125 8.18176 22.1337 8.08145 22.1244C7.98113 22.1151 7.88597 22.0758 7.80842 22.0114C7.73087 21.9471 7.67456 21.8609 7.64686 21.764L2.25986 2.91105C2.2349 2.82346 2.23435 2.73073 2.25824 2.64285C2.28214 2.55497 2.32959 2.47528 2.39546 2.4124C2.46133 2.34951 2.54313 2.30581 2.63202 2.28601C2.72091 2.26621 2.81352 2.27106 2.89986 2.30005Z" fill="#D0D0D0"/>
</svg>
