<svg width="24" height="24" viewBox="0 0 24 24" fill="none" xmlns="http://www.w3.org/2000/svg">
<path d="M14.256 20.744L12 23L9.744 20.744C5.31 19.72 2 15.744 2 11C2 5.48 6.48 1 12 1C17.52 1 22 5.48 22 11C22 15.744 18.69 19.72 14.256 20.744ZM6.023 14.416C7.491 16.606 9.695 18 12.16 18C14.624 18 16.829 16.607 18.296 14.416C16.6317 12.8606 14.4379 11.9968 12.16 12C9.88171 11.9966 7.68751 12.8604 6.023 14.416ZM12 10C12.7956 10 13.5587 9.68393 14.1213 9.12132C14.6839 8.55871 15 7.79565 15 7C15 6.20435 14.6839 5.44129 14.1213 4.87868C13.5587 4.31607 12.7956 4 12 4C11.2044 4 10.4413 4.31607 9.87868 4.87868C9.31607 5.44129 9 6.20435 9 7C9 7.79565 9.31607 8.55871 9.87868 9.12132C10.4413 9.68393 11.2044 10 12 10Z" fill="#D0D0D0"/>
</svg>
