<svg width="24" height="24" viewBox="0 0 24 24" fill="none" xmlns="http://www.w3.org/2000/svg">
<path d="M17.803 9.493C18.795 9.97613 19.9186 10.1192 21 9.9V21C21 21.2652 20.8946 21.5196 20.7071 21.7071C20.5196 21.8946 20.2652 22 20 22H2C1.73478 22 1.48043 21.8946 1.29289 21.7071C1.10536 21.5196 1 21.2652 1 21V5C1 4.73478 1.10536 4.48043 1.29289 4.29289C1.48043 4.10536 1.73478 4 2 4H15.1C15.034 4.323 15 4.658 15 5C14.9983 6.18805 15.4215 7.33756 16.193 8.241L11.061 12.683L4.647 7.238L3.353 8.762L11.073 15.317L17.803 9.493ZM20 8C19.606 8 19.2159 7.9224 18.8519 7.77164C18.488 7.62087 18.1573 7.3999 17.8787 7.12132C17.6001 6.84274 17.3791 6.51203 17.2284 6.14805C17.0776 5.78407 17 5.39397 17 5C17 4.60603 17.0776 4.21593 17.2284 3.85195C17.3791 3.48797 17.6001 3.15726 17.8787 2.87868C18.1573 2.6001 18.488 2.37913 18.8519 2.22836C19.2159 2.0776 19.606 2 20 2C20.7956 2 21.5587 2.31607 22.1213 2.87868C22.6839 3.44129 23 4.20435 23 5C23 5.79565 22.6839 6.55871 22.1213 7.12132C21.5587 7.68393 20.7956 8 20 8Z" fill="#D0D0D0"/>
</svg>
